<svg id="Layer_1" data-name="Layer 1" xmlns="http://www.w3.org/2000/svg" viewBox="0 0 244.16 313.44"><defs><style>.cls-1{fill:none;stroke-linecap:round;stroke-width:7px;}.cls-1,.cls-2{stroke:#FF715B;stroke-miterlimit:10;}.cls-2{fill:#fff;}</style></defs><title>hand</title><path class="cls-1" d="M146.5,348.53a237.09,237.09,0,0,0,.31-54.41,126.12,126.12,0,0,0-2.56-16.77c-4.33-18.57-12.88-33.09-24.48-52.78-3.78-6.42-5.87-13.83-10.18-19.91-1.23-1.74-3.45-4.69-3.48-8.77,0-1,.08-6.28,4.32-9.24,4-2.79,9.19-1.77,12.2.29,3.23,2.22,4.06,5.95,4.66,7.16,10.21,20.4,26.48,35.79,33.25,49.3a9,9,0,0,0,4.24,4.36c.2.08,3.1,1.26,5,0,2.23-1.52,1.9-5.61,1.74-7.41-4.78-51.75-7.31-63.82-8-68.8-1-7-3.66-20.56-2.26-26.91.37-1.66,2.1-9.48,8.3-11.28,4.9-1.42,9.3,1.87,9.62,2.11,4.72,3.65,5.28,10.15,5.52,12.75,2.89,32.33,9.74,78.12,9.92,79.32l1.06,7c.86.78,2.42,2,3.82,1.56,2-.58,2.53-4.07,2.75-5.42,1.71-10.68.75-75,1.34-94.62-.22-13.09,2.93-21.5,12.93-20.5,12,0,11,11,11,16,0,30.36.94,77.53.4,84.48-.42,5.35.48,4.11.09,10-.16,2.36-.44,4.59.85,5.59s3.15.32,3.6.17c5.13-1.66,5.82-16.79,6.93-29.66.5-5.83,2.33-19,6-45.26,0-.38,1.06-7.34,3.21-21.23a7.83,7.83,0,0,1,1.56-3.81,9.12,9.12,0,0,1,6-3.06c.28,0,4.87-.59,8.22,2.33S268,139,268,141.21a312.72,312.72,0,0,1-2.52,48.29c-1,11-1.16,24.6-1.66,41.75-.14,4.83-.12,8.11-.08,13.61.15,20.18.38,51.21,7.28,52.53,1.3.25,2.91-.53,4.79-1.44a18,18,0,0,0,6.35-5.26c6-7.61,10.42-18.28,17.36-27,2.48-3.11,6.68-6.65,15.07-13.74,9.32-7.86,12.23-9.24,15.71-9.54,1-.09,8.64-.63,12.85,4.48a8,8,0,0,1,2,4c.69,4.61-4.17,7.48-9.27,14.29-3.4,4.55-1.72,3.92-7.28,13.27-4.34,7.29-5.88,8.53-10.45,15.89-2.69,4.32-4.77,8.1-7.87,14.07-12.1,23.31-29.05,59.61-44.91,76.22a79.19,79.19,0,0,1-7.54,6.87c-8.14,6.36-14.54,8.31-19.1,10.77-5.79,3.13-13,9.44-18.59,23.57" transform="translate(-103.61 -112.92)"/><path class="cls-2" d="M185.5,207.5" transform="translate(-103.61 -112.92)"/></svg>