<svg xmlns="http://www.w3.org/2000/svg" viewBox="0 0 138.97 223.84"><defs><style>.cls-1{fill:none;stroke:#FF715B;stroke-linecap:round;stroke-miterlimit:10;stroke-width:7px;}</style></defs><title>Asset 1</title><g id="Layer_2" data-name="Layer 2"><g id="Layer_3" data-name="Layer 3"><path class="cls-1" d="M65.5,12.94c-2.91-3-9-9.39-18.49-10.7-15-2.07-26.62,10-30.88,14.35A50.46,50.46,0,0,0,4.21,36.77,54.94,54.94,0,0,0,2.75,61.33C8.61,103,31.21,155.45,31.21,155.45s12.35,28.71,37.94,60.31a15.61,15.61,0,0,0,3.4,3.17c4.19,2.85,8.77,2.92,11.67,2.91,14.6,0,21.9-.05,29.43-2.67,6.4-2.23,13.46-4.69,18.24-11.67a27.94,27.94,0,0,0,3.41-7.3c4.08-13-.42-25.26-2-28.94-1-2.41-6.54-15.1-19.7-22.13-4.52-2.42-8-4.28-12.4-3.65-3.72.53-9.32,3-15.08,5.59a14,14,0,0,1-2.92,1c-.53.11-5.06,1-8.51-1-3.07-1.76-4.15-5.16-4.62-6.56C63.77,125.67,54,108.16,47,89.54a10.31,10.31,0,0,1-.73-4.86c.28-2.4,1.64-5.63,9.25-11.19S65.17,68.69,68.9,65c4.24-4.21,5.6-9.15,6.57-12.64A42.25,42.25,0,0,0,65.5,12.94Z"/><path class="cls-1" d="M30.88,9.94a42.55,42.55,0,0,0,3.7,45.58A43.44,43.44,0,0,0,48.29,67.38"/><path class="cls-1" d="M84.6,157.36a41.53,41.53,0,0,0-.74,18.89c1.42,7.29,3.44,12.4,6,16.54A41.91,41.91,0,0,0,104.23,207a32.1,32.1,0,0,0,9.64,3.7"/><path class="cls-1" d="M36.77,74.36a11,11,0,0,0-2.87,3.73A11.8,11.8,0,0,0,33,84.7c1.19,9.91,12.78,34.62,18.38,50,1.48,4,3.81,10.9,10.34,16.37a29.46,29.46,0,0,0,6.89,4.3"/></g></g></svg>